<svg width="126" height="128" viewBox="0 0 126 128" fill="none" xmlns="http://www.w3.org/2000/svg">
    <path
        d="M0.5 9C0.5 4.02944 4.52944 0 9.5 0H46.2124C51.183 0 55.2124 4.02944 55.2124 9V45.7124C55.2124 50.683 51.183 54.7124 46.2124 54.7124H9.5C4.52944 54.7124 0.5 50.683 0.5 45.7124V9Z"
        fill="#1f2937" />
    <path
        d="M71.0858 9C71.0858 4.02944 75.1152 0 80.0858 0H116.798C121.769 0 125.798 4.02944 125.798 9V45.7124C125.798 50.683 121.769 54.7124 116.798 54.7124H80.0858C75.1152 54.7124 71.0858 50.683 71.0858 45.7124V9Z"
        fill="#1f2937" />
    <path
        d="M71.0858 82.2876C71.0858 77.317 75.1152 73.2876 80.0858 73.2876H116.798C121.769 73.2876 125.798 77.317 125.798 82.2876V119C125.798 123.971 121.769 128 116.798 128H80.0858C75.1152 128 71.0858 123.971 71.0858 119V82.2876Z"
        fill="#1f2937" />
    <path
        d="M0.5 82.2876C0.5 77.317 4.52944 73.2876 9.5 73.2876H46.2124C51.183 73.2876 55.2124 77.317 55.2124 82.2876V119C55.2124 123.971 51.183 128 46.2124 128H9.5C4.52944 128 0.5 123.971 0.5 119V82.2876Z"
        fill="#1f2937" />
</svg>